<svg width="32" height="32" viewBox="0 0 32 32" fill="none" xmlns="http://www.w3.org/2000/svg">
<path d="M22.4967 11.085C22.3578 10.7254 22.1452 10.3989 21.8725 10.1265C21.5998 9.85407 21.2731 9.64179 20.9133 9.50333C20.418 9.31988 19.8948 9.22291 19.3667 9.21667C18.4883 9.17667 18.225 9.16667 16 9.16667C13.775 9.16667 13.5117 9.17667 12.6333 9.21667C12.1046 9.22272 11.5809 9.31969 11.085 9.50333C10.7254 9.64217 10.3989 9.85479 10.1265 10.1275C9.85408 10.4002 9.6418 10.7269 9.50334 11.0867C9.31988 11.582 9.22292 12.1052 9.21667 12.6333C9.17667 13.5117 9.16667 13.775 9.16667 16C9.16667 18.225 9.17667 18.4883 9.21667 19.3667C9.22273 19.8954 9.3197 20.4192 9.50334 20.915C9.64218 21.2746 9.8548 21.6011 10.1275 21.8735C10.4002 22.1459 10.7269 22.3582 11.0867 22.4967C11.582 22.6801 12.1052 22.7771 12.6333 22.7833C13.5117 22.8233 13.775 22.8317 16 22.8317C18.225 22.8317 18.4883 22.8233 19.3667 22.7817C19.8953 22.7762 20.4191 22.6797 20.915 22.4967C21.2746 22.3578 21.6011 22.1452 21.8735 21.8725C22.1459 21.5998 22.3582 21.2731 22.4967 20.9133C22.6801 20.418 22.7771 19.8948 22.7833 19.3667C22.8233 18.4883 22.8317 18.225 22.8317 16C22.8317 13.775 22.8233 13.5117 22.7817 12.6333C22.7762 12.1047 22.6798 11.581 22.4967 11.085ZM16 20.28C15.1535 20.28 14.326 20.029 13.6222 19.5587C12.9183 19.0884 12.3697 18.42 12.0458 17.6379C11.7219 16.8558 11.6371 15.9953 11.8022 15.165C11.9674 14.3348 12.375 13.5722 12.9736 12.9736C13.5722 12.375 14.3348 11.9674 15.165 11.8022C15.9953 11.6371 16.8558 11.7219 17.6379 12.0458C18.42 12.3697 19.0884 12.9183 19.5587 13.6222C20.029 14.326 20.28 15.1535 20.28 16C20.28 17.1351 19.8291 18.2238 19.0264 19.0264C18.2238 19.8291 17.1351 20.28 16 20.28ZM20.4483 12.5517C20.2506 12.5517 20.0572 12.493 19.8928 12.3831C19.7283 12.2733 19.6002 12.1171 19.5245 11.9344C19.4488 11.7516 19.429 11.5506 19.4676 11.3566C19.5061 11.1626 19.6014 10.9844 19.7412 10.8446C19.8811 10.7047 20.0593 10.6095 20.2533 10.5709C20.4472 10.5323 20.6483 10.5521 20.831 10.6278C21.0138 10.7035 21.1699 10.8316 21.2798 10.9961C21.3897 11.1605 21.4483 11.3539 21.4483 11.5517C21.4483 11.8169 21.343 12.0712 21.1555 12.2588C20.9679 12.4463 20.7136 12.5517 20.4483 12.5517ZM18.7783 16C18.7783 16.5495 18.6154 17.0867 18.3101 17.5436C18.0048 18.0005 17.5709 18.3566 17.0632 18.5668C16.5556 18.7771 15.9969 18.8322 15.458 18.725C14.919 18.6177 14.424 18.3531 14.0354 17.9646C13.6469 17.576 13.3823 17.081 13.2751 16.542C13.1679 16.0031 13.2229 15.4445 13.4332 14.9368C13.6434 14.4291 13.9996 13.9952 14.4565 13.6899C14.9133 13.3846 15.4505 13.2217 16 13.2217C16.7369 13.2217 17.4435 13.5144 17.9646 14.0354C18.4856 14.5565 18.7783 15.2631 18.7783 16ZM16 0C12.8355 0 9.74207 0.938384 7.11088 2.69649C4.4797 4.45459 2.42894 6.95345 1.21793 9.87707C0.00693252 12.8007 -0.309921 16.0178 0.307443 19.1214C0.924806 22.2251 2.44866 25.0761 4.6863 27.3137C6.92394 29.5514 9.77487 31.0752 12.8786 31.6926C15.9823 32.3099 19.1993 31.9931 22.1229 30.7821C25.0466 29.5711 27.5454 27.5203 29.3035 24.8891C31.0616 22.2579 32 19.1645 32 16C32 11.7565 30.3143 7.68687 27.3137 4.68629C24.3131 1.68571 20.2435 0 16 0ZM24.2833 19.435C24.2692 20.1266 24.1379 20.8107 23.895 21.4583C23.681 22.0118 23.3537 22.5144 22.9341 22.934C22.5144 23.3536 22.0118 23.681 21.4583 23.895C20.8112 24.1377 20.1277 24.269 19.4367 24.2833C18.5467 24.3233 18.2633 24.3333 16 24.3333C13.7367 24.3333 13.4533 24.3233 12.5633 24.2833C11.8724 24.269 11.1888 24.1377 10.5417 23.895C9.98821 23.681 9.48557 23.3536 9.06596 22.934C8.64636 22.5144 8.31905 22.0118 8.10501 21.4583C7.86228 20.8112 7.73097 20.1277 7.71667 19.4367C7.67667 18.5467 7.66667 18.2633 7.66667 16C7.66667 13.7367 7.67667 13.4533 7.71667 12.5633C7.73044 11.8724 7.86118 11.1889 8.10334 10.5417C8.31737 9.98773 8.64485 9.48467 9.06476 9.06476C9.48467 8.64484 9.98774 8.31736 10.5417 8.10333C11.1889 7.86117 11.8724 7.73043 12.5633 7.71667C13.4533 7.67667 13.7367 7.66667 16 7.66667C18.2633 7.66667 18.5467 7.67667 19.4367 7.71667C20.1276 7.73043 20.8111 7.86117 21.4583 8.10333C22.012 8.31756 22.5147 8.64513 22.9343 9.06503C23.3539 9.48493 23.6812 9.9879 23.895 10.5417C24.1377 11.1888 24.269 11.8723 24.2833 12.5633C24.3233 13.4533 24.3333 13.7367 24.3333 16C24.3333 18.2633 24.3233 18.545 24.2833 19.435Z" fill="#999999"/>
</svg>
