<svg width="26" height="26" viewBox="0 0 26 26" fill="none" xmlns="http://www.w3.org/2000/svg">
<path d="M21.8777 20.3465H4.12203C3.5449 20.3458 2.99159 20.1162 2.58352 19.7081C2.17544 19.3 1.94592 18.7467 1.94531 18.1695V7.20378C1.94592 6.62665 2.17544 6.07332 2.58352 5.66521C2.99159 5.25709 3.5449 5.02752 4.12203 5.02686H21.8777C22.4549 5.02752 23.0082 5.25709 23.4163 5.66521C23.8243 6.07332 24.0539 6.62665 24.0545 7.20378V18.1695C24.0539 18.7467 23.8243 19.3 23.4163 19.7081C23.0082 20.1162 22.4549 20.3458 21.8777 20.3465ZM4.12203 5.85886C3.76547 5.85924 3.42363 6.00107 3.17152 6.25321C2.91942 6.50536 2.77764 6.84722 2.77731 7.20378V18.1695C2.77764 18.5261 2.91942 18.868 3.17152 19.1201C3.42363 19.3723 3.76547 19.5141 4.12203 19.5145H21.8777C22.2343 19.5141 22.5761 19.3723 22.8283 19.1201C23.0804 18.868 23.2221 18.5261 23.2225 18.1695V7.20378C23.2221 6.84722 23.0804 6.50536 22.8283 6.25321C22.5761 6.00107 22.2343 5.85924 21.8777 5.85886H4.12203Z" fill="#F1E8D4"/>
<path d="M13.0002 15.1349C12.8988 15.1349 12.8009 15.0979 12.7248 15.0309L2.69922 6.18088L3.24979 5.55688L13.0002 14.1648L22.751 5.55792L23.3016 6.18193L13.276 15.0319C13.1998 15.0988 13.1016 15.1354 13.0002 15.1349Z" fill="#F1E8D4"/>
<path d="M2.47266 19.0403L9.20775 11.3664L9.83341 11.9155L3.09832 19.5894L2.47266 19.0403Z" fill="#F1E8D4"/>
<path d="M16.1875 11.9072L16.8132 11.3581L23.5484 19.0322L22.9227 19.5813L16.1875 11.9072Z" fill="#F1E8D4"/>
</svg>
