<svg width="26" height="26" viewBox="0 0 26 26" fill="none" xmlns="http://www.w3.org/2000/svg">
<path d="M21.8777 20.3466H4.12203C3.5449 20.3459 2.99159 20.1164 2.58352 19.7082C2.17544 19.3001 1.94592 18.7468 1.94531 18.1697V7.20391C1.94592 6.62677 2.17544 6.07344 2.58352 5.66533C2.99159 5.25721 3.5449 5.02764 4.12203 5.02698H21.8777C22.4549 5.02764 23.0082 5.25721 23.4163 5.66533C23.8243 6.07344 24.0539 6.62677 24.0545 7.20391V18.1697C24.0539 18.7468 23.8243 19.3001 23.4163 19.7082C23.0082 20.1164 22.4549 20.3459 21.8777 20.3466ZM4.12203 5.85898C3.76547 5.85936 3.42363 6.00119 3.17152 6.25334C2.91942 6.50548 2.77764 6.84735 2.77731 7.20391V18.1697C2.77764 18.5262 2.91942 18.8681 3.17152 19.1202C3.42363 19.3724 3.76547 19.5142 4.12203 19.5146H21.8777C22.2343 19.5142 22.5761 19.3724 22.8283 19.1202C23.0804 18.8681 23.2221 18.5262 23.2225 18.1697V7.20391C23.2221 6.84735 23.0804 6.50548 22.8283 6.25334C22.5761 6.00119 22.2343 5.85936 21.8777 5.85898H4.12203Z" fill="#999999"/>
<path d="M13.0002 15.1349C12.8988 15.1349 12.8009 15.0979 12.7248 15.0309L2.69922 6.18088L3.24979 5.55688L13.0002 14.1648L22.751 5.55792L23.3016 6.18193L13.276 15.0319C13.1998 15.0988 13.1016 15.1354 13.0002 15.1349Z" fill="#999999"/>
<path d="M2.47266 19.0402L9.20775 11.3662L9.83341 11.9154L3.09832 19.5893L2.47266 19.0402Z" fill="#999999"/>
<path d="M16.1875 11.9073L16.8132 11.3582L23.5484 19.0323L22.9227 19.5814L16.1875 11.9073Z" fill="#999999"/>
</svg>
