<svg width="32" height="32" viewBox="0 0 32 32" fill="none" xmlns="http://www.w3.org/2000/svg">
<path d="M16 0C7.1625 0 0 7.1625 0 16C0 24.8375 7.1625 32 16 32C24.8375 32 32 24.8375 32 16C32 7.1625 24.8375 0 16 0ZM19.5312 13.2875L19.35 15.6812H16.8937V23.9938H13.7937V15.6812H12.1375V13.2875H13.7937V11.6812C13.7937 10.975 13.8125 9.88125 14.325 9.2C14.8687 8.48125 15.6125 7.99375 16.8937 7.99375C18.9812 7.99375 19.8563 8.29375 19.8563 8.29375L19.4438 10.7437C19.4438 10.7437 18.7562 10.5438 18.1125 10.5438C17.4688 10.5438 16.8937 10.775 16.8937 11.4188V13.2875H19.5312Z" fill="#999999"/>
</svg>
