<svg width="190" height="56" viewBox="0 0 190 56" fill="none" xmlns="http://www.w3.org/2000/svg">
<g clip-path="url(#clip0_526_675)">
<path d="M83.1841 32.9989L68.355 13.7867H68.1936V27.6622C68.1936 28.694 68.2294 29.4945 68.2653 30.1349C68.337 30.7219 68.4984 31.2022 68.7136 31.5224C68.9467 31.8426 69.2695 32.0739 69.6819 32.1984C70.0943 32.3229 70.5964 32.3585 71.2778 32.3941V32.9989H63.6211V32.3941C64.3383 32.3585 64.948 32.3229 65.3784 32.1984C65.8625 32.0739 66.1853 31.8426 66.4542 31.5224C66.6873 31.2022 66.8487 30.7753 66.9384 30.206C67.0101 29.619 67.0639 28.8541 67.0639 27.8579L67.0998 14.0536C67.0998 13.1819 67.0998 12.5059 67.028 11.9011C66.9563 11.3496 66.8308 10.9049 66.5798 10.5491C66.3825 10.2289 66.0598 9.99765 65.6115 9.87313C65.217 9.71303 64.6432 9.64187 64.0156 9.5885V9.00146H69.0184L81.5165 25.2607C82.2696 26.2924 83.1662 26.0968 83.1662 26.0968L83.2021 14.2848C83.2021 13.2886 83.2021 12.4525 83.1303 11.8655C83.0586 11.2607 82.8972 10.7982 82.6821 10.4424C82.449 10.1222 82.1621 9.89092 81.7138 9.80197C81.3193 9.67745 80.7993 9.64187 80.1179 9.60629V9.01925H87.7745V9.60629C87.0573 9.60629 86.4476 9.67745 86.0173 9.80197C85.569 9.9265 85.2104 10.1578 84.9773 10.4424C84.6904 10.7626 84.529 11.1895 84.4573 11.7943C84.3855 12.3992 84.3317 13.1463 84.3317 14.1069L84.2959 32.9989H83.1662H83.1841Z" fill="#17372A"/>
<path d="M99.017 14.3204L98.9812 27.7156C98.9812 28.7473 99.017 29.5478 99.1067 30.1349C99.1784 30.7753 99.3398 31.2022 99.5908 31.558C99.8239 31.8782 100.2 32.1095 100.631 32.1984C101.079 32.3229 101.671 32.3585 102.388 32.3941V32.9989H92.2031V32.3585C92.9562 32.3585 93.53 32.2874 94.0142 32.1628C94.4625 32.0917 94.8211 31.8426 95.0542 31.5224C95.2873 31.2378 95.4487 30.8109 95.5383 30.206C95.6639 29.6546 95.6997 28.8541 95.6997 27.8935V14.0891C95.6997 13.2175 95.6997 12.5059 95.628 11.9011C95.5563 11.3496 95.3949 10.9049 95.1797 10.5491C94.9466 10.2289 94.6239 9.99765 94.2114 9.87313C93.8169 9.71303 93.2431 9.64187 92.5618 9.5885V9.00146H102.101V9.5885C101.456 9.62408 100.9 9.71303 100.487 9.87313C100.093 9.99765 99.7701 10.2289 99.5191 10.5847C99.3219 10.9405 99.1605 11.3852 99.0708 12.0078C99.035 12.6126 98.9991 13.3598 98.9991 14.267L99.017 14.3204Z" fill="#17372A"/>
<path d="M122.668 27.8402L131.042 9.03711H137.408V9.62415C136.727 9.65973 136.207 9.74867 135.812 9.90877C135.364 10.0333 135.095 10.3001 134.844 10.6203C134.647 10.9761 134.485 11.4564 134.395 12.0435C134.324 12.6483 134.27 13.431 134.27 14.3916L134.234 27.7156C134.234 28.7474 134.27 29.5835 134.36 30.1883C134.449 30.7931 134.593 31.2557 134.844 31.5759C135.077 31.9316 135.453 32.0917 135.884 32.2163C136.314 32.3408 136.924 32.3764 137.641 32.412V33.0168H127.492V32.412C128.209 32.3764 128.819 32.3408 129.249 32.2163C129.68 32.0917 130.056 31.8961 130.289 31.5759C130.576 31.2557 130.737 30.8109 130.809 30.2595C130.881 29.708 130.935 28.9075 130.935 27.9469L130.971 12.9151H130.648L121.467 32.999H120.553L111.892 12.8795H111.694L111.659 27.6801C111.659 28.7118 111.694 29.5479 111.784 30.1527C111.856 30.7398 112.017 31.2201 112.268 31.5403C112.501 31.8961 112.824 32.0917 113.308 32.2163C113.757 32.2874 114.348 32.3764 115.066 32.412V33.0168H107.176V32.412C107.893 32.3764 108.503 32.2874 108.933 32.2163C109.381 32.0917 109.74 31.8605 109.973 31.5759C110.206 31.2557 110.421 30.8109 110.493 30.2239C110.565 29.6724 110.619 28.9075 110.619 27.9113L110.654 14.7118C110.654 13.8402 110.619 12.5238 110.529 11.9723C110.457 11.4208 110.332 10.9405 110.081 10.6203C109.883 10.2646 109.561 10.0689 109.112 9.90877C108.718 9.78425 108.144 9.71309 107.516 9.62415V9.03711H113.972L120.947 25.3319L121.718 27.0397C122.077 27.8402 122.633 27.8402 122.633 27.8402H122.668Z" fill="#17372A"/>
<path d="M142.071 32.9987V32.3939C142.878 32.3583 143.559 32.3227 144.043 32.1982C144.528 32.0737 144.886 31.878 145.119 31.6467C145.442 31.291 145.603 30.6861 145.675 30.2058C145.801 29.7611 145.837 28.9784 145.837 28.249L145.872 13.7331C145.872 13.0216 145.837 11.8297 145.747 11.385C145.657 10.9403 145.55 10.5845 145.299 10.3532C145.101 10.0686 144.779 9.9085 144.33 9.80176C143.936 9.73061 143.362 9.64166 142.734 9.60608V9.01904H152.113C154.91 9.01904 156.918 9.53493 158.478 10.5311C160.038 11.5273 160.809 12.9504 160.845 14.7471C160.845 16.2948 160.074 17.4866 159.357 18.2516C158.64 18.9631 157.115 19.8348 155.591 20.3151C156.237 20.3863 156.864 20.5108 157.402 20.6353C158.048 20.831 159.088 21.1156 160.164 21.8628C162.046 23.1791 162.764 24.798 162.764 26.7903C162.764 27.911 162.441 28.8894 161.849 29.85C161.204 30.8107 160.361 31.4866 159.357 32.0381C158.12 32.6785 156.99 32.8742 155.663 32.9453C155.017 32.9809 154.211 32.9809 153.332 32.9809H142.035L142.071 32.9987ZM153.655 32.4473C156.703 32.4473 159.142 29.9034 159.142 26.8437C159.142 24.4955 158.137 22.8234 156.219 21.9161C154.336 21.0445 151.126 20.6353 150.212 20.5997C149.405 20.5642 149.172 20.5997 149.172 20.5997L149.136 28.1245C149.136 32.465 151.503 32.465 153.673 32.465L153.655 32.4473ZM151.844 19.7636C152.525 19.7992 153.404 19.9949 154.731 19.2478C155.537 18.7675 157.097 17.3799 157.097 15.1207C157.097 12.8615 156.613 11.7763 155.896 11.0292C155.125 10.1931 154.175 9.55271 152.13 9.55271C150.319 9.55271 149.172 10.5489 149.172 12.061V19.5858C149.979 19.5858 151.18 19.7103 151.862 19.7814L151.844 19.7636Z" fill="#17372A"/>
<path d="M180.228 25.9365C179.457 25.4206 178.542 24.9048 177.054 24.4244C174.884 23.784 172.517 23.7485 172.517 23.7485C172.159 24.5845 170.904 27.7688 170.76 28.2491C170.635 28.7294 170.276 29.7967 170.204 30.117C170.007 31.2377 170.24 31.629 170.527 31.9136C170.886 32.2694 171.926 32.4295 172.804 32.4295V33.0344H165.184V32.3939C165.865 32.3939 166.098 32.3228 166.421 32.2339C167.622 31.9492 168.268 31.1665 168.626 30.4905C168.788 30.1703 168.985 29.7434 169.146 29.2987L177.359 9.05469H178.13C178.13 9.05469 186.145 28.6938 186.468 29.4054C186.791 30.0814 187.149 30.8819 187.472 31.2732C187.831 31.7891 188.154 32.0737 188.512 32.2339C188.907 32.394 189.427 32.4295 190 32.4295V33.0344H179.744V32.3939C180.873 32.3939 181.627 32.2338 182.021 31.9492C182.505 31.629 182.667 30.9175 182.667 30.4372V29.8857L182.541 29.3698C182.505 29.1741 182.38 28.8183 182.254 28.5693C182.021 27.9823 181.483 26.8615 180.21 25.9543L180.228 25.9365ZM172.93 22.7879C176.301 22.948 178.74 23.3393 180.748 24.1042L176.624 13.5731C176.624 13.5731 173.289 21.8095 172.93 22.8056V22.7879Z" fill="#17372A"/>
<path d="M64.9464 47.5858C64.4981 47.3012 64.1754 46.9098 63.9423 46.4295C63.7091 45.9314 63.6016 45.3978 63.6016 44.7751C63.6016 44.1525 63.7271 43.6189 63.9602 43.1208C64.1933 42.6227 64.534 42.2313 64.9823 41.9467C65.4306 41.6621 65.9685 41.502 66.5961 41.502H66.7216C67.1878 41.502 67.6182 41.6087 67.9947 41.8222C68.3713 42.0356 68.6761 42.3203 68.8913 42.676C69.1065 43.0318 69.232 43.441 69.232 43.9035H68.3354C68.3354 43.6011 68.2637 43.3342 68.1382 43.103C68.0127 42.8717 67.8154 42.6938 67.5823 42.5515C67.3313 42.427 67.0444 42.3558 66.7216 42.3558H66.5961C66.1299 42.3558 65.7354 42.4626 65.4126 42.676C65.0899 42.8895 64.8568 43.1741 64.7133 43.5299C64.5519 43.9035 64.4802 44.3126 64.4802 44.7751C64.4802 45.2377 64.5519 45.6824 64.6954 46.0382C64.8388 46.3939 65.0719 46.6786 65.3768 46.8743C65.6816 47.0699 66.0581 47.1767 66.5244 47.1767C67.0623 47.1767 67.4927 47.0166 67.7975 46.6964C68.1023 46.3762 68.2816 45.9136 68.3354 45.3266H66.345V44.4727H69.232V47.9238H68.3534V47.3012C68.1202 47.5324 67.8513 47.6925 67.5285 47.8171C67.2058 47.9416 66.8651 47.995 66.5064 47.995C65.8788 47.995 65.3588 47.8527 64.9105 47.568L64.9464 47.5858Z" fill="#17372A"/>
<path d="M74.5396 47.5858C74.0913 47.3012 73.7327 46.9098 73.4996 46.4295C73.2665 45.9492 73.123 45.38 73.123 44.7574C73.123 44.1347 73.2486 43.5833 73.4996 43.0852C73.7506 42.5871 74.0913 42.1957 74.5396 41.9289C74.9879 41.6443 75.5079 41.502 76.0817 41.502C76.6555 41.502 77.1755 41.6443 77.6238 41.9289C78.0721 42.2135 78.4128 42.6049 78.6638 43.0852C78.9149 43.5833 79.0404 44.1347 79.0404 44.7574C79.0404 45.38 78.9149 45.9314 78.6638 46.4295C78.4128 46.9276 78.0721 47.3012 77.6238 47.5858C77.1755 47.8704 76.6555 48.0128 76.0817 48.0128C75.5079 48.0128 74.9879 47.8704 74.5396 47.5858ZM74.2706 46.056C74.45 46.4117 74.6831 46.6964 75.0058 46.892C75.3286 47.0877 75.6872 47.1767 76.0817 47.1767C76.4762 47.1767 76.8528 47.0877 77.1576 46.892C77.4804 46.6964 77.7135 46.4117 77.8928 46.056C78.0721 45.7002 78.1617 45.2732 78.1617 44.7751C78.1617 44.277 78.0721 43.8501 77.8928 43.4943C77.7135 43.1385 77.4804 42.8539 77.1576 42.6582C76.8348 42.4626 76.4762 42.3736 76.0817 42.3736C75.6872 42.3736 75.3107 42.4626 74.9879 42.6582C74.6651 42.8539 74.432 43.1208 74.2527 43.4943C74.0734 43.8501 73.9837 44.277 73.9837 44.7751C73.9837 45.2732 74.0734 45.7002 74.2527 46.056H74.2706Z" fill="#17372A"/>
<path d="M83.1117 41.5908H83.9903V47.0876H87.72V47.9415H83.0938V41.6086L83.1117 41.5908Z" fill="#17372A"/>
<path d="M91.5918 41.5908H93.8691C94.4787 41.5908 94.9808 41.7331 95.3753 42.0178C95.7877 42.3024 96.0746 42.6937 96.2719 43.174C96.4691 43.6544 96.5588 44.188 96.5588 44.7929C96.5588 45.3977 96.4512 45.9136 96.2539 46.3939C96.0567 46.8742 95.7519 47.2477 95.3394 47.5146C94.927 47.7992 94.4249 47.9237 93.8153 47.9237H91.5918V41.5908ZM93.8153 47.0876C94.4429 47.0876 94.9091 46.892 95.2139 46.5006C95.5187 46.1092 95.6801 45.54 95.6801 44.7929C95.6801 44.0457 95.5367 43.4409 95.2318 43.0495C94.927 42.6404 94.4787 42.4447 93.8691 42.4447H92.4525V47.0876H93.7973H93.8153Z" fill="#17372A"/>
<path d="M105.758 41.6086H108.555C108.968 41.6086 109.326 41.6798 109.631 41.8043C109.954 41.9466 110.205 42.1423 110.384 42.4269C110.564 42.7116 110.671 43.0673 110.671 43.4943C110.671 44.0102 110.546 44.4193 110.277 44.7217C110.008 45.0241 109.667 45.2198 109.219 45.3266L110.851 47.9238H109.811L108.215 45.3977H106.619V47.906L105.74 47.9593V41.6086H105.758ZM108.538 44.5438C108.968 44.5438 109.273 44.4727 109.488 44.3126C109.685 44.1525 109.793 43.8856 109.793 43.4943C109.793 43.1029 109.685 42.8361 109.488 42.6938C109.291 42.5515 108.968 42.4625 108.538 42.4625H106.637V44.5616H108.538V44.5438Z" fill="#17372A"/>
<path d="M114.868 41.5908H119.404V42.4447H115.746V44.1702H119.117V45.0241H115.746V47.1054H119.476V47.9593H114.85V41.6264L114.868 41.5908Z" fill="#17372A"/>
<path d="M123.582 41.5908H128.119V42.4447H124.461V44.1702H127.832V45.0241H124.461V47.9415H123.582V41.6086V41.5908Z" fill="#17372A"/>
<path d="M132.207 41.5908H133.086V47.9237H132.207V41.5908Z" fill="#17372A"/>
<path d="M137.533 41.5908H138.322L141.532 46.2693V41.5908H142.411V47.9237H141.622L138.412 43.2808V47.9237H137.533V41.5908Z" fill="#17372A"/>
<path d="M146.875 41.5908H151.412V42.4447H147.754V44.1702H151.125V45.0241H147.754V47.1054H151.484V47.9593H146.857V41.6264L146.875 41.5908Z" fill="#17372A"/>
<path d="M155.588 41.6089H158.386C158.798 41.6089 159.157 41.68 159.461 41.8046C159.784 41.9469 160.035 42.1426 160.215 42.4272C160.394 42.7118 160.501 43.0676 160.501 43.4945C160.501 44.0104 160.376 44.4196 160.107 44.722C159.838 45.0244 159.497 45.2201 159.049 45.3268L160.681 47.924H159.641L158.045 45.398H156.449V47.9062L155.57 47.9596V41.6089H155.588ZM158.368 44.5441C158.798 44.5441 159.103 44.4729 159.318 44.3128C159.515 44.1527 159.623 43.8859 159.623 43.4945C159.623 43.1032 159.515 42.8363 159.318 42.694C159.121 42.5517 158.798 42.4628 158.368 42.4628H156.467V44.5619H158.368V44.5441Z" fill="#17372A"/>
<path d="M166.312 45.3622L163.945 41.5909H164.985L166.761 44.4194L168.554 41.5909H169.594L167.209 45.3622V47.9239H166.33V45.3622H166.312Z" fill="#17372A"/>
<path fill-rule="evenodd" clip-rule="evenodd" d="M56.1973 24.7983C55.749 20.6179 54.5117 17.5759 52.7903 14.3028C52.0014 12.7907 50.8896 11.2252 49.9034 10.1223C48.9172 9.0194 47.5723 7.40059 46.4068 6.54672C44.9902 5.53274 43.9681 4.58992 42.2288 3.6471C36.7956 0.640746 31.3266 -0.479965 24.8175 0.19602C10.4187 1.67251 -1.50563 14.9432 0.161979 31.1846C1.63234 45.5937 15.027 57.6191 31.6135 55.8402C39.5032 54.9864 46.6578 50.628 51.2303 44.1706C50.9793 44.4019 50.6386 44.5442 50.262 44.5442H49.9034C49.5448 45.0245 49.1682 45.4514 48.8275 45.8072C48.5047 46.1274 48.451 46.074 48.1999 46.412C47.913 45.8784 47.5903 45.238 47.2854 44.5442H46.4785C46.7833 45.2913 47.0344 45.9673 47.2137 46.412C47.7158 47.6751 46.2992 48.1731 45.5819 48.7958C41.7446 52.1223 34.9308 55.3066 29.3721 55.0397C32.2411 52.1045 37.8356 46.1808 40.6867 43.5302C41.8881 42.4095 42.3364 42.0715 43.215 41.1998L42.7309 40.3815L40.3819 42.6052C38.2839 44.6331 30.7886 52.7094 29.5872 53.3142L33.1914 44.5086C32.8866 44.5086 32.5997 44.4019 32.3487 44.2062L28.2245 54.2392C27.6686 53.4209 20.2988 34.7958 19.1154 31.8428L18.7747 30.9889L17.4119 29.6547C17.3581 30.3841 17.8243 31.0601 18.1829 31.9495C19.4381 35.027 26.5568 52.1757 26.8079 53.4387C26.252 52.9228 25.8037 52.4247 25.2479 51.8377C24.6741 51.2329 24.1541 50.8949 23.5623 50.3078C21.9664 48.7246 18.2547 44.8822 14.2918 40.7907V42.0537L19.6174 47.6039C20.263 48.2799 20.9443 48.7602 21.6078 49.454L26.9513 55.0219C23.5265 55.2532 19.3843 53.7411 16.6408 52.567C13.4132 51.1795 11.0463 49.2405 8.93038 47.2481L10.1856 44.3129H9.25314L9.07383 44.7221C8.73314 45.5404 8.67934 45.9851 8.15934 46.4654C6.42 44.4374 4.48342 41.9648 3.1565 38.8161C2.09856 36.3256 0.664055 31.7538 0.915093 28.6407C1.91925 29.4413 2.61857 30.473 3.62272 31.3447C4.30411 31.9317 5.95379 33.5327 7.5676 35.1515V33.9241C4.39376 30.7043 1.82959 28.1782 1.07647 27.6446C1.48889 26.7195 3.04892 25.5277 3.80203 24.8161C4.30411 24.3358 4.53721 23.9266 5.03929 23.4285L7.58553 20.9914V19.7106C4.9855 22.3434 1.99097 25.6166 0.968887 26.1859C1.13027 22.4501 2.27787 19.177 3.62272 16.1884C4.59101 14.0003 7.5676 9.71317 9.03797 8.84151C9.28901 9.76654 9.71936 10.8873 10.1856 12.0613L11.7277 13.6801C10.9745 11.9724 10.0242 9.32181 9.59384 8.32563C10.4366 6.83134 14.9015 4.16298 17.0712 3.25574C20.1016 1.99272 23.383 1.0499 27.0231 0.96095L19.7788 8.16552C17.5015 10.3002 14.9015 12.5772 12.7677 14.8008L13.3953 15.4413L26.8437 2.47302L18.8822 21.1693L19.5636 21.8809C19.8505 21.2049 20.1374 20.5111 20.4243 19.8174C21.9664 16.2062 26.8437 4.02067 28.1348 1.6903L32.7431 12.5238H33.1735C33.3707 12.5238 33.55 12.5772 33.7294 12.6484C31.6314 7.70301 29.6769 3.04227 29.5514 2.3485L35.9887 8.62804C37.3335 9.92664 38.6605 11.1897 40.0053 12.4705C40.4715 12.5238 40.9198 12.595 41.3681 12.7017C40.9915 12.3282 40.6508 11.9902 40.3819 11.7233L29.3362 0.96095C32.6356 0.818637 36.9032 2.13503 39.557 3.30911C41.7088 4.26972 45.7254 6.70682 46.9985 8.3612L44.7212 14.196C44.9364 14.3383 45.1695 14.4984 45.3668 14.6585L47.7696 9.00161C47.913 9.19729 49.491 10.8517 50.531 12.3104C51.3738 13.5022 52.1627 14.8008 52.8441 16.2418C54.2428 19.2125 55.3366 22.6103 55.498 26.3282C54.7269 25.8657 49.7241 21.0982 46.8371 18.1274C46.7833 18.163 46.7654 18.2164 46.7116 18.2697L46.1199 18.7144C48.5765 21.2049 54.2607 26.0258 55.2648 27.5912L47.5544 35.5073L48.0206 36.3256C49.8317 34.5111 52.0731 32.0918 52.9517 31.2024L55.3545 28.9076C55.9642 32.1986 53.92 38.069 51.4275 42.2672L51.5172 42.4095C51.7503 42.8186 51.7682 43.2812 51.571 43.6903C55.1214 38.4603 56.9863 31.9139 56.2152 24.7805L56.1973 24.7983Z" fill="#17372A"/>
<path fill-rule="evenodd" clip-rule="evenodd" d="M34.6074 38.6204V40.9508L37.0999 34.8491C36.795 34.8136 36.4902 34.778 36.2033 34.7246C36.0061 35.2227 35.8447 35.6141 35.7371 35.8631L34.6074 38.6382V38.6204Z" fill="#17372A"/>
<path fill-rule="evenodd" clip-rule="evenodd" d="M14.2738 32.4651V34.9022C15.2062 32.643 16.3 29.8324 16.6407 28.9785L16.0131 28.3737C15.8338 28.8895 15.5469 29.5477 15.1345 30.4906C14.9731 30.8463 14.6503 31.5935 14.2559 32.4829L14.2738 32.4651Z" fill="#17372A"/>
<path d="M29.3364 34.1554L25.3377 30.0106L8.98438 12.8975V42.9254H12.8396V22.5391C13.2162 23.1084 13.6106 23.6599 14.0231 24.1935C14.4355 24.7094 14.8479 25.2431 15.3141 25.6878L33.1737 43.1389V13.9826H29.3185V34.1554H29.3364Z" fill="#17372A"/>
<path d="M50.2436 43.1212L44.0035 32.1987C44.4159 31.9497 44.7924 31.6473 45.1511 31.3271C46.6752 29.8684 47.4283 27.8226 47.4283 25.1898C47.4283 24.9764 47.4283 24.5672 47.3925 23.9624C47.3925 23.7311 47.3925 23.5532 47.3925 23.4287H39.9331V25.9903H44.4697V26.2572C44.4697 27.6625 43.9676 28.7654 42.9634 29.5659C41.9593 30.3665 40.5786 30.7756 38.8213 30.7756C37.2972 30.7756 36.0599 30.4198 35.002 29.6905V32.9637C36.1137 33.3194 37.3689 33.4973 38.7496 33.4973C39.2696 33.4973 39.7537 33.4617 40.2379 33.4084L46.0118 43.1034H50.2794L50.2436 43.1212Z" fill="#17372A"/>
<path d="M41.4576 17.1847C42.2645 17.5405 42.9817 18.092 43.6093 18.8213L45.8507 17.1492C44.9362 16.0462 43.8783 15.2279 42.7128 14.6765C41.5472 14.1428 40.2024 13.876 38.732 13.876C37.4051 13.876 36.1678 14.0894 34.9844 14.4986V17.7184C36.0423 17.0069 37.2616 16.6511 38.7858 16.6511C39.772 16.6511 40.6686 16.829 41.4576 17.1847Z" fill="#17372A"/>
</g>
<defs>
<clipPath id="clip0_526_675">
<rect width="190" height="56" fill="white"/>
</clipPath>
</defs>
</svg>
