<svg width="70" height="70" viewBox="0 0 70 70" fill="none" xmlns="http://www.w3.org/2000/svg">
<g clip-path="url(#clip0_108_149)">
<path d="M54.1067 67.972H20.9599C20.0275 67.972 19.2349 67.6457 18.5822 66.993C17.9296 66.3403 17.6032 65.5478 17.6032 64.6154V41.3287C17.6032 41.0956 17.6732 40.9091 17.813 40.7692C17.9529 40.6294 18.116 40.5595 18.3025 40.5595H56.7641C56.9505 40.5595 57.1137 40.6294 57.2536 40.7692C57.3934 40.9091 57.4634 41.0956 57.4634 41.3287V64.6154C57.4634 65.5478 57.137 66.3403 56.4843 66.993C55.8317 67.6457 55.0391 67.972 54.1067 67.972ZM19.0718 42.028V64.6154C19.0718 65.1282 19.2466 65.5711 19.5962 65.9441C19.9459 66.317 20.3771 66.5035 20.8899 66.5035H54.1067C54.6195 66.5035 55.0624 66.317 55.4354 65.9441C55.8084 65.5711 55.9948 65.1282 55.9948 64.6154V42.028H19.0718ZM40.9599 67.972H34.0368C33.8503 67.972 33.6871 67.9021 33.5473 67.7623C33.4074 67.6224 33.3375 67.4359 33.3375 67.2028V41.3287C33.3375 41.0956 33.4074 40.9091 33.5473 40.7692C33.6871 40.6294 33.8503 40.5595 34.0368 40.5595H40.9599C41.193 40.5595 41.3795 40.6294 41.5193 40.7692C41.6592 40.9091 41.7291 41.0956 41.7291 41.3287V67.2028C41.7291 67.4359 41.6592 67.6224 41.5193 67.7623C41.3795 67.9021 41.193 67.972 40.9599 67.972ZM34.806 66.5035H40.2606V42.028H34.806V66.5035ZM7.18365 53.1469C6.95055 53.1469 6.76407 53.0769 6.62421 52.9371L3.33749 49.6504C2.68481 48.9977 2.35847 48.2051 2.35847 47.2727C2.35847 46.3403 2.68481 45.5478 3.33749 44.8951L26.834 21.4686C27.4867 20.7692 28.2676 20.4196 29.1767 20.4196C30.0857 20.4196 30.8666 20.7692 31.5193 21.4686L34.876 24.7553C35.0158 24.8951 35.0857 25.07 35.0857 25.2797C35.0857 25.4895 35.0158 25.6644 34.876 25.8042L7.67316 52.9371C7.5333 53.0769 7.37013 53.1469 7.18365 53.1469ZM29.2116 21.9581C28.6522 21.9581 28.2093 22.1445 27.8829 22.5175L4.38645 45.9441C4.01348 46.317 3.827 46.7599 3.827 47.2727C3.827 47.7856 4.01348 48.2285 4.38645 48.6014L7.18365 51.3986L33.2676 25.2448L30.4704 22.5175C30.144 22.1445 29.7244 21.9581 29.2116 21.9581ZM15.5753 34.4755C15.3888 34.4755 15.214 34.394 15.0508 34.2308C14.8876 34.0676 14.8293 33.8695 14.876 33.6364L15.6452 23.7762C15.6918 22.8905 15.9715 22.1096 16.4843 21.4336C16.9972 20.7576 17.6615 20.2681 18.4774 19.9651C19.2932 19.662 20.1207 19.6037 20.9599 19.7902C21.799 19.9767 22.5216 20.373 23.1277 20.979C24.0135 21.8182 24.4564 22.8555 24.4564 24.0909C24.4564 25.3264 24.0135 26.3637 23.1277 27.2028L16.1347 34.1958C15.9948 34.3823 15.8084 34.4755 15.5753 34.4755ZM20.0508 21.1888C19.7244 21.1888 19.3748 21.2355 19.0018 21.3287C18.489 21.5152 18.0578 21.8415 17.7081 22.3077C17.3585 22.7739 17.1603 23.2867 17.1137 23.8462L16.4843 31.7483L22.0788 26.1539C22.6382 25.5944 22.9179 24.9068 22.9179 24.0909C22.9179 23.2751 22.6382 22.5874 22.0788 22.028C21.5193 21.4686 20.8433 21.1888 20.0508 21.1888ZM5.99484 42.5175C4.78272 42.5175 3.73376 42.0979 2.84798 41.2588C2.24192 40.6527 1.84565 39.9301 1.65917 39.0909C1.47269 38.2518 1.53097 37.4243 1.834 36.6084C2.13703 35.7926 2.62654 35.1282 3.30253 34.6154C3.97852 34.1026 4.75941 33.8229 5.64519 33.7762L15.5053 32.9371C15.8783 32.9371 16.1347 33.0886 16.2746 33.3916C16.4144 33.6947 16.3678 33.9627 16.1347 34.1958L9.07176 41.2588C8.2326 42.0979 7.20696 42.5175 5.99484 42.5175ZM13.6172 34.6154L5.78505 35.2448C5.17899 35.2914 4.65451 35.4779 4.21162 35.8042C3.76873 36.1306 3.44239 36.5618 3.2326 37.0979C3.02281 37.6341 2.97619 38.1818 3.09274 38.7413C3.20929 39.3007 3.47735 39.7902 3.89693 40.2098C4.45638 40.7692 5.14402 41.049 5.95987 41.049C6.77572 41.049 7.46337 40.7692 8.02281 40.2098L13.6172 34.6154ZM18.3025 42.028C18.0694 42.028 17.8829 41.9581 17.7431 41.8182L12.6382 36.6434C12.4983 36.5035 12.4284 36.3403 12.4284 36.1539C12.4284 35.9674 12.4983 35.7809 12.6382 35.5944L17.5333 30.6993C17.6732 30.5595 17.848 30.4895 18.0578 30.4895C18.2676 30.4895 18.4424 30.5595 18.5822 30.6993L23.6871 35.8741C23.827 36.014 23.8969 36.1888 23.8969 36.3986C23.8969 36.6084 23.827 36.7832 23.6871 36.9231L18.792 41.8182C18.6522 41.9581 18.489 42.028 18.3025 42.028ZM14.1767 36.1539L18.3025 40.2098L22.1487 36.3637L18.0228 32.3077L14.1767 36.1539ZM57.1836 36.0839L56.9739 35.7343C56.3212 35.035 55.6452 34.056 54.9459 32.7972C54.2466 31.5385 53.7571 30.4895 53.4774 29.6504C52.9179 27.8322 52.8247 26.1306 53.1976 24.5455C53.5706 22.9604 54.3282 21.8648 55.4704 21.2588C56.6126 20.6527 57.8014 20.5595 59.0368 20.979C60.2722 21.3986 61.2396 22.2145 61.9389 23.4266C63.2909 23.007 64.5729 23.0536 65.785 23.5665C66.9972 24.0793 67.8247 24.9301 68.2676 26.1189C68.7105 27.3077 68.5589 28.6131 67.813 30.035C67.0671 31.4569 65.8783 32.6807 64.2466 33.7063C63.5007 34.1259 62.4517 34.5804 61.0997 35.07C59.7477 35.5595 58.5822 35.8741 57.6032 36.014L57.1836 36.0839ZM57.5333 22.2378C57.0671 22.2378 56.6009 22.3543 56.1347 22.5874C55.3422 23.007 54.8293 23.8462 54.5962 25.1049C54.3631 26.3637 54.4797 27.7156 54.9459 29.1609C55.1324 29.8602 55.517 30.7459 56.0997 31.8182C56.6825 32.8905 57.2536 33.7762 57.813 34.4755C58.6988 34.2891 59.7128 33.986 60.855 33.5665C61.9972 33.1469 62.8713 32.7506 63.4774 32.3776C64.7827 31.5851 65.7617 30.641 66.4144 29.5455C67.0671 28.4499 67.2303 27.4825 66.9039 26.6434C66.5776 25.8042 65.9948 25.2215 65.1557 24.8951C64.1767 24.4755 63.1044 24.5455 61.9389 25.1049L61.2396 25.3846L60.9599 24.6853C60.4004 23.5198 59.6079 22.7739 58.5822 22.4476C58.2559 22.3077 57.9063 22.2378 57.5333 22.2378ZM43.2676 20.8392L42.9878 20.5595C42.2419 19.6271 41.4261 18.38 40.5403 16.8182C39.6545 15.2564 39.0485 13.9627 38.7221 12.9371C38.0228 10.6993 37.8946 8.61307 38.3375 6.67834C38.7804 4.74361 39.7011 3.40328 41.0997 2.65736C42.4983 1.91144 43.9552 1.79489 45.4704 2.30771C46.9855 2.82053 48.186 3.86948 49.0718 5.45456C50.7967 4.8485 52.4051 4.86016 53.8969 5.48953C55.3888 6.1189 56.4028 7.16785 56.9389 8.63638C57.475 10.1049 57.2769 11.7133 56.3445 13.4616C55.4121 15.2098 53.9436 16.69 51.9389 17.9021C51.0065 18.4616 49.7011 19.0443 48.0228 19.6504C46.3445 20.2564 44.8993 20.6294 43.6871 20.7692L43.2676 20.8392ZM43.6172 3.49652C43.0112 3.49652 42.4051 3.65969 41.799 3.98603C40.7734 4.54548 40.0974 5.62939 39.7711 7.23778C39.4447 8.84617 39.5846 10.5828 40.1906 12.4476C40.4704 13.3334 40.9832 14.4639 41.7291 15.8392C42.475 17.2145 43.1976 18.345 43.8969 19.2308C45.0158 19.0443 46.3095 18.683 47.7781 18.1469C49.2466 17.6107 50.3771 17.1096 51.1697 16.6434C52.848 15.6177 54.1067 14.394 54.9459 12.972C55.785 11.5501 55.9948 10.2914 55.5753 9.19582C55.1557 8.10025 54.4098 7.31937 53.3375 6.85316C51.9855 6.29372 50.5636 6.36366 49.0718 7.06295L48.3725 7.34267L48.0927 6.71331C47.3934 5.17484 46.3678 4.17251 45.0158 3.70631C44.5496 3.56645 44.0834 3.49652 43.6172 3.49652ZM45.3655 36.8532L44.9459 36.7832C44.2932 36.69 43.489 36.4802 42.5333 36.1539C41.5776 35.8275 40.8433 35.5012 40.3305 35.1748C39.165 34.4289 38.3142 33.5548 37.7781 32.5525C37.2419 31.5501 37.137 30.5944 37.4634 29.6853C37.7897 28.7762 38.3841 28.1469 39.2466 27.7972C40.1091 27.4476 41.0065 27.4126 41.9389 27.6923C42.4517 26.8998 43.1394 26.352 44.0018 26.049C44.8643 25.7459 45.7151 25.8159 46.5543 26.2588C47.3934 26.7016 47.9529 27.4825 48.2326 28.6014C48.5123 29.7203 48.4424 30.9324 48.0228 32.2378C47.8363 32.8438 47.4983 33.5898 47.0088 34.4755C46.5193 35.3613 46.0648 36.0606 45.6452 36.5734L45.3655 36.8532ZM40.7501 29.021C40.4704 29.021 40.1906 29.0676 39.9109 29.1609C39.3981 29.3473 39.0485 29.7086 38.862 30.2448C38.6755 30.7809 38.792 31.3986 39.2116 32.0979C39.6312 32.7972 40.2606 33.4033 41.0997 33.9161C41.4727 34.1492 42.0321 34.394 42.7781 34.6504C43.524 34.9068 44.1767 35.1049 44.7361 35.2448C45.1091 34.7786 45.482 34.1958 45.855 33.4965C46.2279 32.7972 46.4843 32.2378 46.6242 31.8182C46.9039 30.8858 46.9739 30.0117 46.834 29.1958C46.6941 28.38 46.3795 27.8438 45.8899 27.5874C45.4004 27.331 44.8993 27.2961 44.3864 27.4825C43.7804 27.669 43.2909 28.1352 42.9179 28.8811L42.6382 29.5804L41.9389 29.3007C41.5659 29.1142 41.1697 29.021 40.7501 29.021Z" fill="#F1E8D4"/>
</g>
<defs>
<clipPath id="clip0_108_149">
<rect width="70" height="70" fill="white" transform="matrix(1 0 0 -1 0 70)"/>
</clipPath>
</defs>
</svg>
