<svg width="70" height="70" viewBox="0 0 70 70" fill="none" xmlns="http://www.w3.org/2000/svg">
<path d="M12.7266 20.8392C12.9131 20.6061 13.2161 20.2331 13.6357 19.7203L15.3839 17.4825C15.617 17.1096 15.9667 16.9231 16.4329 16.9231L53.7755 16.993C54.0553 16.993 54.335 17.1562 54.6147 17.4825L64.265 29.7203C64.638 30.1399 64.8594 30.4429 64.9294 30.6294C64.9993 30.8159 64.9993 30.979 64.9294 31.1189C64.8594 31.2588 64.6613 31.5152 64.335 31.8881L54.1951 43.4965L55.1042 44.056C55.3839 44.1958 55.5238 44.394 55.5238 44.6504C55.5238 44.9068 55.3839 45.1282 55.1042 45.3147L54.8944 45.4546C54.5681 45.6877 54.3117 45.8275 54.1252 45.8741C53.5657 46.0606 53.0995 46.387 52.7266 46.8532C52.4002 47.2261 52.0972 47.7389 51.8175 48.3916L51.5378 48.8811C51.4445 49.1142 51.3513 49.2891 51.258 49.4056C51.1648 49.5222 51.0249 49.5571 50.8385 49.5105C50.652 49.4639 50.4422 49.2774 50.2091 48.9511L49.9993 48.7413L49.7196 48.3217L49.6497 48.6014C49.5564 48.7413 49.4865 48.8345 49.4399 48.8811L35.7336 64.4755C35.4072 64.8485 35.1508 65.0233 34.9643 65C34.7779 64.9767 34.5215 64.8019 34.1951 64.4755L5.24406 31.4686C4.91772 31.0956 4.94103 30.6993 5.31399 30.2797L8.8105 25.7343C9.13684 25.3613 9.09022 25.035 8.67064 24.7553L6.64266 23.6364C6.2697 23.4499 6.09488 23.2168 6.11819 22.9371C6.1415 22.6574 6.33963 22.4243 6.71259 22.2378C8.3443 21.5851 9.48649 20.3963 10.1392 18.6713C10.3256 18.2984 10.5587 18.1119 10.8385 18.1119C11.1182 18.1119 11.3513 18.2984 11.5378 18.6713L12.7266 20.8392ZM24.1252 31.6084C26.3629 37.8555 29.673 47.1795 34.0553 59.5804L34.8944 62.028H35.0343L45.8035 31.6084H24.1951H24.1252ZM7.20211 31.6084C15.7802 41.352 24.335 51.0956 32.8664 60.8392C32.9131 60.6527 32.8897 60.4196 32.7965 60.1399L22.9364 32.2378C22.8431 32.0047 22.7382 31.8299 22.6217 31.7133C22.5051 31.5968 22.3303 31.5385 22.0972 31.5385L7.20211 31.6084ZM62.6567 31.6783C62.61 31.6317 62.5168 31.6084 62.3769 31.6084H47.8315C47.5984 31.6084 47.4352 31.655 47.342 31.7483C47.2487 31.8415 47.1555 31.9814 47.0622 32.1679L36.8525 61.049L37.1322 60.8392L48.8804 47.4825C49.1601 47.1096 49.1135 46.8065 48.7406 46.5734L48.0413 46.2238C47.4818 45.9441 47.0856 45.711 46.8525 45.5245C46.4329 45.1982 46.1998 44.9184 46.1532 44.6853C46.1532 44.5455 46.2231 44.394 46.3629 44.2308C46.5028 44.0676 46.666 43.9627 46.8525 43.9161C48.3909 43.2634 49.4632 42.1445 50.0692 40.5595C50.1159 40.4196 50.2208 40.2797 50.3839 40.1399C50.5471 40 50.6986 39.9301 50.8385 39.9301C51.0716 39.9301 51.328 40.1399 51.6077 40.5595C51.7942 40.8858 52.0739 41.3753 52.4469 42.028L52.8664 42.8672C56.1298 39.1375 59.3932 35.4079 62.6567 31.6783ZM45.7336 30.1399C45.7336 30.0933 45.7336 30.0466 45.7336 30L41.328 18.7413C41.2347 18.6014 41.1415 18.5082 41.0483 18.4616C40.955 18.4149 40.8152 18.3916 40.6287 18.3916H29.3C29.1135 18.3916 28.9737 18.4266 28.8804 18.4965C28.7872 18.5665 28.6939 18.6947 28.6007 18.8811L24.335 29.7203L24.265 30.1399H45.7336ZM62.7965 30.1399C62.0506 29.2075 60.955 27.8089 59.5098 25.9441L53.9853 18.9511L47.9713 30.1399H62.7965ZM21.9573 30.1399C21.3047 28.8811 20.3023 27.0163 18.9504 24.5455L16.0133 18.9511L13.9154 21.6084L14.1252 21.7483C14.4981 21.9347 14.7546 22.0746 14.8944 22.1679V22.2378C15.314 22.5641 15.5238 22.8205 15.5238 23.007C15.5238 23.1935 15.314 23.4499 14.8944 23.7762C14.7079 23.9161 14.4049 24.0793 13.9853 24.2658L13.2161 24.7553C12.9364 24.8951 12.7266 25.1049 12.5867 25.3846L11.5378 27.4126C11.3513 27.6923 11.1298 27.8322 10.8734 27.8322C10.617 27.8322 10.3956 27.6923 10.2091 27.4126L9.85945 26.7133L7.13217 30.2098C10.4888 30.1632 15.4305 30.1399 21.9573 30.1399ZM42.5867 18.3916C43.0063 19.3706 43.5891 20.8392 44.335 22.7972L46.9224 29.3007L52.7266 18.3916H42.5867ZM27.342 18.4616H17.272L23.0762 29.2308L27.342 18.4616ZM8.25106 22.9371C9.46318 23.3567 10.3256 24.2424 10.8385 25.5944C11.3047 24.3823 12.1671 23.4965 13.4259 22.9371C12.7732 22.704 12.2487 22.366 11.8525 21.9231C11.4562 21.4802 11.1182 20.8625 10.8385 20.07C10.4189 21.4686 9.55642 22.4243 8.25106 22.9371ZM53.4259 44.7553C53.3326 44.662 53.1462 44.5455 52.8664 44.4056C52.3536 44.1259 52.004 43.8811 51.8175 43.6713C51.631 43.4616 51.3979 43.0769 51.1182 42.5175L50.7685 41.9581C50.3956 43.31 49.5564 44.2191 48.2511 44.6853C49.5098 45.1982 50.3723 46.0839 50.8385 47.3427C51.2114 46.1306 52.0739 45.2681 53.4259 44.7553ZM34.265 9.79023C34.265 9.51051 34.265 9.11424 34.265 8.60142C34.265 7.3893 34.265 6.45689 34.265 5.80421C34.3117 5.52449 34.4515 5.26809 34.6846 5.03498C34.7779 4.98837 34.8944 4.97671 35.0343 5.00002C35.1741 5.02333 35.2907 5.0816 35.3839 5.17484C35.5238 5.3147 35.5937 5.52449 35.5937 5.80421V13.7063C35.5937 14.2191 35.3723 14.4755 34.9294 14.4755C34.4865 14.4755 34.265 14.1958 34.265 13.6364V9.79023ZM41.6776 13.6364C41.7243 13.5431 41.7942 13.4499 41.8874 13.3567L42.0972 13.007L45.1741 9.79023C45.5937 9.37065 45.955 9.33568 46.258 9.68533C46.5611 10.035 46.5261 10.3963 46.1532 10.7692L45.3839 11.6084C44.3583 12.6807 43.5657 13.4732 43.0063 13.986C42.9131 14.0793 42.7849 14.1492 42.6217 14.1958C42.4585 14.2424 42.3303 14.2541 42.2371 14.2308C42.1438 14.2075 42.004 14.0793 41.8175 13.8462L41.6776 13.6364ZM27.5518 14.6154C27.5051 14.5688 27.4119 14.4989 27.272 14.4056C27.1322 14.3124 27.0156 14.2424 26.9224 14.1958L23.7755 10.9091C23.4026 10.5361 23.3793 10.1865 23.7056 9.86016C24.0319 9.53382 24.3816 9.55713 24.7546 9.93009L27.9713 13.2168C28.018 13.31 28.0646 13.4382 28.1112 13.6014C28.1578 13.7646 28.1695 13.9044 28.1462 14.021C28.1229 14.1375 27.9946 14.2658 27.7615 14.4056L27.5518 14.6154Z" fill="#F1E8D4"/>
</svg>
