<svg width="70" height="53" viewBox="0 0 70 53" fill="none" xmlns="http://www.w3.org/2000/svg">
<g clip-path="url(#clip0_108_313)">
<path d="M69.8141 34.6363L65.9135 24.932C65.8889 24.8541 65.8615 24.7762 65.8287 24.6982L62.7348 17.3359C62.4217 16.5922 61.7668 16.0289 60.9834 15.8265L55.3916 14.3992C55.2918 13.7484 54.9473 13.1496 54.4264 12.7435L51.7617 10.6599C51.316 10.3113 50.6707 10.3906 50.3221 10.8363C49.9734 11.282 50.0527 11.9273 50.4984 12.276L53.1645 14.3596C53.282 14.4512 53.3572 14.5892 53.3723 14.7383L53.8713 19.8939C53.8959 20.1441 53.7469 20.3779 53.5104 20.4627L47.5508 22.5969C47.4387 22.6365 47.3143 22.6392 47.2008 22.6037L36.8143 19.3033C36.6256 19.2432 36.4916 19.0914 36.4478 18.9096V18.6334L37.4842 11.2383C37.5129 11.0346 37.651 10.8664 37.8451 10.798L41.6609 9.45956L41.665 9.45819L44.9914 8.29198C45.1678 8.23046 45.3619 8.2619 45.5096 8.37675L46.9533 9.50604C47.399 9.85467 48.0443 9.77674 48.393 9.32967C48.7416 8.88397 48.6623 8.23866 48.2166 7.89003L46.7729 6.76073C46.0715 6.21249 45.1527 6.06073 44.3119 6.35604L41.5857 7.31171L38.3742 3.94159C37.8861 3.42889 37.2012 3.13495 36.493 3.13495H26.0682C25.2643 3.13495 24.4918 3.51639 24.0023 4.15624L14.0342 17.217C13.7799 17.5506 13.6172 17.9293 13.5434 18.3217L11.524 27.1523L5.21309 26.1351C3.81719 25.9096 2.44863 26.7586 2.02891 28.1094L0.414258 33.3115C0.325391 33.5986 0.283008 33.8912 0.284375 34.1797L0 43.117C0 43.1279 0 43.1389 0 43.1498C0 44.2394 0.604297 45.2183 1.57773 45.7051L4.74141 47.2883C5.01621 47.4223 5.30469 47.5111 5.60137 47.5535C5.61094 47.5549 5.61914 47.5576 5.62871 47.559C5.63144 47.559 5.63555 47.559 5.63828 47.559H5.64375C5.64648 47.559 5.64922 47.559 5.65332 47.559C5.77363 47.5754 5.89395 47.5836 6.01562 47.5836C6.2125 47.5836 6.41211 47.5617 6.60898 47.5207L16.8861 45.3264C17.1486 45.2703 17.3947 45.176 17.623 45.0543L23.1711 51.1943C23.1711 51.1943 23.182 51.2053 23.1875 51.2121C23.4473 51.4937 23.7699 51.7166 24.1199 51.8574L24.124 51.8588H24.1268C24.1295 51.8588 24.1322 51.8615 24.135 51.8615C24.1527 51.8683 24.1719 51.8738 24.1896 51.8806C24.4822 51.9914 24.7871 52.0488 25.0947 52.0488C25.1125 52.0488 25.1316 52.0488 25.1494 52.0488C25.1604 52.0488 25.1699 52.0488 25.1809 52.0488L43.3795 51.4896C43.9455 51.4719 44.3898 50.9988 44.3734 50.4328C44.3557 49.8668 43.8853 49.4156 43.3166 49.4389L26.3867 49.9598L28.2789 47.1502C28.5729 46.7168 28.726 46.2082 28.7246 45.6791L28.7027 42.3363H53.6539C53.7059 42.3363 53.7564 42.3349 53.8084 42.3322L55.7594 49.0574L47.8365 49.3008C47.2705 49.3185 46.8262 49.7916 46.8426 50.3576C46.859 50.9127 47.3156 51.3515 47.8666 51.3515C47.8775 51.3515 47.8885 51.3515 47.898 51.3515L56.5373 51.0863C56.5619 51.0863 56.5865 51.0849 56.6111 51.0822C56.9092 51.0672 57.2031 50.9974 57.4834 50.8785C57.4971 50.873 57.5094 50.8662 57.5217 50.8594C57.791 50.739 58.0357 50.5791 58.2504 50.3767L62.5994 46.2683C63.2584 45.6449 63.5469 44.707 63.3514 43.8238L63.0246 42.339H63.9529C64.7268 42.339 65.4541 41.9986 65.9477 41.4039L69.3971 37.2668C70.0082 36.5326 70.1682 35.5264 69.8141 34.6377V34.6363ZM53.6033 22.6051L53.3463 25.2369C53.3367 25.3381 53.2834 25.4283 53.2 25.4857L49.7355 27.8947L48.8742 24.299L53.6047 22.6051H53.6033ZM46.5773 24.556C46.6648 24.5834 46.7523 24.6053 46.8426 24.623L47.6273 27.8988L36.6611 23.4719C36.5312 23.4199 36.4465 23.2955 36.4465 23.1547V21.3363L46.5773 24.556ZM3.98945 28.7137C4.1084 28.3322 4.49395 28.093 4.8877 28.1558L14.9119 29.7732C15.21 29.8211 15.4547 30.0289 15.549 30.316L16.5799 33.4277C16.7166 33.8406 16.4951 34.2959 16.0836 34.4422L6.4873 37.8451L2.64141 34.7853C2.4459 34.6295 2.33789 34.3998 2.33652 34.1605V34.1564V34.151C2.33652 34.0717 2.34883 33.9924 2.37344 33.9144L3.98809 28.7123L3.98945 28.7137ZM2.49512 43.8703C2.22441 43.7349 2.05488 43.4642 2.05078 43.1621L2.24492 37.089L5.23496 39.468L4.84805 45.0474L2.49375 43.8703H2.49512ZM16.4555 43.3207L6.88242 45.366L7.27207 39.7441L16.7658 36.3767L17.0939 42.5551C17.0844 42.9242 16.8178 43.2441 16.4568 43.3221L16.4555 43.3207ZM26.5781 46.0031L24.3004 49.3855L18.9752 43.493C19.0846 43.1908 19.1434 42.8668 19.1434 42.5318C19.1434 42.514 19.1434 42.4963 19.142 42.4771L18.6689 33.5508C18.6676 33.5152 18.6635 33.4797 18.658 33.4455C18.6402 33.224 18.5992 33.0012 18.5268 32.7824L17.4959 29.6707C17.1596 28.6549 16.2941 27.918 15.2387 27.7484L13.5529 27.4764L14.8545 21.782L19.5221 29.6297C19.7135 29.9523 20.0553 30.1314 20.4039 30.1314C20.5816 30.1314 20.7621 30.0849 20.9275 29.9879C21.4143 29.698 21.5742 29.0691 21.2844 28.5824L15.6283 19.0723C15.56 18.9574 15.5381 18.8248 15.5586 18.7004L15.5709 18.6484C15.5887 18.5814 15.6187 18.5172 15.6625 18.4598L25.6307 5.40038C25.7359 5.26366 25.8945 5.18436 26.0668 5.18436H36.4916C36.6406 5.18436 36.7855 5.24589 36.8881 5.35389L39.4611 8.05409L37.1629 8.85936C36.2414 9.18202 35.5852 9.98456 35.4498 10.9512L34.4039 18.4187C34.4039 18.4269 34.4039 18.4338 34.4012 18.442C34.4012 18.4529 34.3984 18.4639 34.3984 18.4748C34.3752 18.6703 34.3738 18.8631 34.3943 19.0531V23.1547C34.3943 24.1349 34.9822 25.0058 35.8914 25.3723L48.017 30.2668C48.0252 30.2695 48.0334 30.2736 48.0416 30.2764C48.3178 30.3844 48.6145 30.4404 48.9125 30.4404C48.9576 30.4404 49.0041 30.4363 49.0492 30.4336C49.0779 30.4336 49.1066 30.4336 49.1354 30.4295H49.1381H49.1408C49.1436 30.4295 49.1463 30.4295 49.149 30.4295C49.5414 30.3912 49.9215 30.2545 50.2482 30.0344C50.2578 30.0275 50.2687 30.0207 50.2783 30.0139L54.3676 27.1715C54.9445 26.7723 55.315 26.1406 55.3848 25.4392L55.8756 20.4148C55.918 20.1824 55.9316 19.9404 55.907 19.6957L55.6049 16.5717L60.4693 17.8131C60.6361 17.8555 60.7756 17.9758 60.8412 18.1316L63.9352 25.4926C63.9434 25.5117 63.9502 25.5308 63.9557 25.5514C63.9557 25.5555 63.9584 25.5596 63.9598 25.565C64.0008 25.7195 63.9734 25.8849 63.8791 26.0189L54.0982 40.0517C53.9957 40.198 53.8275 40.2855 53.6484 40.2855H28.5551C28.4402 40.2855 28.3336 40.25 28.2434 40.1885C28.2365 40.1844 28.2311 40.1803 28.2242 40.1762C28.1695 40.1338 28.1217 40.0818 28.0848 40.0189L23.6004 32.4789C23.3105 31.9922 22.6816 31.8322 22.1949 32.1221C21.7082 32.4119 21.5482 33.0408 21.8381 33.5275L26.3225 41.0689C26.4141 41.2234 26.5221 41.3642 26.641 41.4941L26.6684 45.6914C26.6684 45.8049 26.6369 45.9115 26.574 46.0045L26.5781 46.0031ZM67.8221 35.9529L64.3727 40.09C64.2688 40.2158 64.1156 40.2869 63.9529 40.2869H62.0061C61.6314 40.2869 61.2814 40.4551 61.0463 40.7463C60.8111 41.0389 60.7223 41.4162 60.8029 41.784L61.3471 44.264C61.3881 44.45 61.3279 44.6469 61.1898 44.7767L57.627 48.1414L55.6664 41.3793C55.7074 41.3287 55.7471 41.2781 55.7854 41.2234L64.9605 28.0574L67.9109 35.3965C67.9848 35.5838 67.952 35.7957 67.8221 35.9502V35.9529Z" fill="#F1E8D4"/>
<path d="M14.469 6.19474C14.6686 6.39435 14.9311 6.49552 15.1936 6.49552C15.4561 6.49552 15.7186 6.39572 15.9182 6.19474C16.3188 5.79415 16.3188 5.14474 15.9182 4.74415L14.9926 3.81857C14.592 3.41798 13.9426 3.41798 13.542 3.81857C13.1414 4.21915 13.1414 4.86857 13.542 5.26915L14.4676 6.19474H14.469Z" fill="#F1E8D4"/>
<path d="M18.4898 2.5553C18.6129 3.01331 19.0271 3.31545 19.4797 3.31545C19.5672 3.31545 19.6574 3.30452 19.7463 3.27991C20.2931 3.13362 20.6185 2.5717 20.4709 2.02346L20.1318 0.758814C19.9855 0.211939 19.4222 -0.112084 18.8754 0.0342047C18.3285 0.180494 18.0031 0.742408 18.1508 1.29065L18.4898 2.5553Z" fill="#F1E8D4"/>
<path d="M10.4849 10.407L11.7496 10.7461C11.8385 10.7693 11.9273 10.7817 12.0162 10.7817C12.4687 10.7817 12.883 10.4795 13.006 10.0215C13.1523 9.47462 12.8283 8.91271 12.2814 8.76505L11.0168 8.42599C10.4699 8.2797 9.908 8.60372 9.76034 9.1506C9.61405 9.69747 9.93807 10.2594 10.4849 10.407Z" fill="#F1E8D4"/>
<path d="M44.6688 34.5775H46.0865C46.2875 34.5775 46.4844 34.6595 46.6279 34.8017L47.25 35.4238C47.4496 35.6234 47.7121 35.7246 47.9746 35.7246C48.2371 35.7246 48.4996 35.6248 48.6992 35.4238C49.0998 35.0232 49.0998 34.3738 48.6992 33.9732L48.0772 33.3511C47.5453 32.8193 46.8385 32.5267 46.0865 32.5267H44.6688C44.1027 32.5267 43.6434 32.9861 43.6434 33.5521C43.6434 34.1181 44.1027 34.5775 44.6688 34.5775Z" fill="#F1E8D4"/>
<path d="M27.0539 12.0504H28.4717C28.6726 12.0504 28.8709 12.1324 29.0131 12.2746L29.6351 12.8967C29.8348 13.0963 30.0973 13.1975 30.3598 13.1975C30.6223 13.1975 30.8848 13.0977 31.0844 12.8967C31.4849 12.4961 31.4849 11.8467 31.0844 11.4461L30.4623 10.824C29.9305 10.2922 29.2236 9.99963 28.4717 9.99963H27.0539C26.4879 9.99963 26.0285 10.459 26.0285 11.025C26.0285 11.591 26.4879 12.0504 27.0539 12.0504Z" fill="#F1E8D4"/>
<path d="M25.6033 26.8092H26.5713C27.1373 26.8092 27.5967 26.3498 27.5967 25.7838C27.5967 25.2178 27.1373 24.7584 26.5713 24.7584H25.6033C25.0373 24.7584 24.5779 25.2178 24.5779 25.7838C24.5779 26.3498 25.0373 26.8092 25.6033 26.8092Z" fill="#F1E8D4"/>
<path d="M6.2959 34.0867H7.2625C7.82852 34.0867 8.28789 33.6274 8.28789 33.0613C8.28789 32.4953 7.82852 32.0359 7.2625 32.0359H6.2959C5.72988 32.0359 5.27051 32.4953 5.27051 33.0613C5.27051 33.6274 5.72988 34.0867 6.2959 34.0867Z" fill="#F1E8D4"/>
<path d="M29.9181 21.2816H28.9515C28.3855 21.2816 27.9261 21.741 27.9261 22.307C27.9261 22.873 28.3855 23.3324 28.9515 23.3324H29.9181C30.4842 23.3324 30.9435 22.873 30.9435 22.307C30.9435 21.741 30.4842 21.2816 29.9181 21.2816Z" fill="#F1E8D4"/>
<path d="M38.7994 37.5389H39.7674C40.3334 37.5389 40.7928 37.0795 40.7928 36.5135C40.7928 35.9475 40.3334 35.4881 39.7674 35.4881H38.7994C38.2334 35.4881 37.774 35.9475 37.774 36.5135C37.774 37.0795 38.2334 37.5389 38.7994 37.5389Z" fill="#F1E8D4"/>
<path d="M47.8379 17.5355H46.8713C46.3053 17.5355 45.8459 17.9949 45.8459 18.5609C45.8459 19.1269 46.3053 19.5863 46.8713 19.5863H47.8379C48.4039 19.5863 48.8633 19.1269 48.8633 18.5609C48.8633 17.9949 48.4039 17.5355 47.8379 17.5355Z" fill="#F1E8D4"/>
</g>
<defs>
<clipPath id="clip0_108_313">
<rect width="70" height="52.0502" fill="white"/>
</clipPath>
</defs>
</svg>
