<svg width="195" height="58" viewBox="0 0 195 58" fill="none" xmlns="http://www.w3.org/2000/svg">
<g clip-path="url(#clip0_108_73)">
<path d="M85.3728 34.1773L70.1534 14.2789H69.9877V28.6499C69.9877 29.7186 70.0245 30.5477 70.0613 31.2109C70.135 31.8189 70.3006 32.3164 70.5214 32.648C70.7607 32.9797 71.0919 33.2192 71.5152 33.3482C71.9385 33.4771 72.4538 33.514 73.1531 33.5508V34.1773H65.2949V33.5508C66.031 33.514 66.6568 33.4771 67.0984 33.3482C67.5953 33.2192 67.9266 32.9797 68.2026 32.648C68.4419 32.3164 68.6075 31.8742 68.6995 31.2846C68.7731 30.6766 68.8283 29.8844 68.8283 28.8526L68.8651 14.5553C68.8651 13.6525 68.8651 12.9524 68.7915 12.3259C68.7179 11.7548 68.5891 11.2942 68.3314 10.9257C68.129 10.594 67.7978 10.3545 67.3377 10.2255C66.9328 10.0597 66.3439 9.98603 65.6998 9.93076V9.32275H70.8343L83.6613 26.1627C84.4342 27.2313 85.3544 27.0286 85.3544 27.0286L85.3912 14.7948C85.3912 13.763 85.3912 12.8971 85.3176 12.2891C85.244 11.6627 85.0783 11.1836 84.8575 10.8151C84.6183 10.4835 84.3238 10.244 83.8637 10.1519C83.4589 10.0229 82.9252 9.98603 82.2258 9.94918V9.34118H90.084V9.94918C89.3479 9.94918 88.7222 10.0229 88.2805 10.1519C87.8204 10.2808 87.4523 10.5203 87.2131 10.8151C86.9186 11.1468 86.753 11.589 86.6794 12.2154C86.6058 12.8418 86.5506 13.6156 86.5506 14.6106L86.5138 34.1773H85.3544H85.3728Z" fill="white"/>
<path d="M101.622 14.8316L101.585 28.7052C101.585 29.7738 101.622 30.6029 101.714 31.2109C101.788 31.8742 101.953 32.3164 102.211 32.6849C102.45 33.0165 102.837 33.256 103.278 33.3482C103.738 33.4771 104.346 33.514 105.082 33.5508V34.1773H94.6289V33.514C95.4018 33.514 95.9907 33.4403 96.4876 33.3113C96.9477 33.2376 97.3158 32.9797 97.555 32.648C97.7943 32.3532 97.9599 31.9111 98.0519 31.2846C98.1807 30.7135 98.2175 29.8844 98.2175 28.8895V14.5921C98.2175 13.6893 98.2175 12.9524 98.1439 12.3259C98.0703 11.7548 97.9047 11.2942 97.6838 10.9257C97.4446 10.594 97.1133 10.3545 96.6901 10.2255C96.2852 10.0597 95.6963 9.98603 94.997 9.93076V9.32275H104.787V9.93076C104.125 9.96761 103.554 10.0597 103.131 10.2255C102.726 10.3545 102.395 10.594 102.137 10.9625C101.935 11.331 101.769 11.7916 101.677 12.4365C101.641 13.0629 101.604 13.8367 101.604 14.7764L101.622 14.8316Z" fill="white"/>
<path d="M125.897 28.8342L134.491 9.35962H141.024V9.96762C140.325 10.0045 139.791 10.0966 139.386 10.2624C138.926 10.3914 138.65 10.6678 138.392 10.9994C138.19 11.3679 138.024 11.8653 137.932 12.4733C137.859 13.0998 137.803 13.9104 137.803 14.9054L137.767 28.7052C137.767 29.7739 137.803 30.6398 137.895 31.2662C137.987 31.8927 138.135 32.3717 138.392 32.7033C138.632 33.0718 139.018 33.2376 139.46 33.3666C139.901 33.4956 140.527 33.5324 141.263 33.5693V34.1957H130.847V33.5693C131.583 33.5324 132.209 33.4956 132.651 33.3666C133.092 33.2376 133.479 33.035 133.718 32.7033C134.012 32.3717 134.178 31.9111 134.252 31.3399C134.325 30.7688 134.38 29.9397 134.38 28.9448L134.417 13.3761H134.086L124.664 34.1773H123.725L114.836 13.3393H114.634L114.597 28.6684C114.597 29.737 114.634 30.6029 114.726 31.2294C114.799 31.8374 114.965 32.3348 115.223 32.6665C115.462 33.035 115.793 33.2376 116.29 33.3666C116.75 33.4403 117.357 33.5324 118.094 33.5693V34.1957H109.996V33.5693C110.732 33.5324 111.358 33.4403 111.8 33.3666C112.26 33.2376 112.628 32.9981 112.867 32.7033C113.106 32.3717 113.327 31.9111 113.401 31.3031C113.474 30.7319 113.53 29.9397 113.53 28.9079L113.566 15.237C113.566 14.3342 113.53 12.9708 113.438 12.3996C113.364 11.8285 113.235 11.331 112.978 10.9994C112.775 10.6309 112.444 10.4282 111.984 10.2624C111.579 10.1334 110.99 10.0597 110.346 9.96762V9.35962H116.971L124.13 26.2364L124.921 28.0051C125.289 28.8342 125.86 28.8342 125.86 28.8342H125.897Z" fill="white"/>
<path d="M145.808 34.1774V33.551C146.636 33.5141 147.336 33.4773 147.833 33.3483C148.33 33.2193 148.698 33.0167 148.937 32.7771C149.268 32.4087 149.434 31.7822 149.507 31.2848C149.636 30.8242 149.673 30.0135 149.673 29.2581L149.71 14.2238C149.71 13.4868 149.673 12.2524 149.581 11.7918C149.489 11.3311 149.379 10.9627 149.121 10.7231C148.918 10.4283 148.587 10.2625 148.127 10.152C147.722 10.0783 147.133 9.98616 146.489 9.94931V9.34131H156.114C158.985 9.34131 161.046 9.87562 162.647 10.9074C164.248 11.9391 165.04 13.4131 165.076 15.274C165.076 16.8769 164.285 18.1113 163.549 18.9036C162.813 19.6405 161.249 20.5433 159.684 21.0408C160.347 21.1145 160.991 21.2435 161.543 21.3724C162.206 21.5751 163.273 21.8699 164.377 22.6437C166.309 24.0071 167.046 25.6837 167.046 27.7473C167.046 28.908 166.714 29.9214 166.107 30.9163C165.444 31.9112 164.58 32.6113 163.549 33.1825C162.279 33.8458 161.12 34.0484 159.758 34.1221C159.095 34.159 158.267 34.159 157.365 34.159H145.771L145.808 34.1774ZM157.697 33.6062C160.825 33.6062 163.328 30.9716 163.328 27.8026C163.328 25.3705 162.298 23.6386 160.328 22.699C158.396 21.7962 155.102 21.3724 154.163 21.3356C153.335 21.2987 153.096 21.3356 153.096 21.3356L153.059 29.1291C153.059 33.6247 155.488 33.6247 157.715 33.6247L157.697 33.6062ZM155.838 20.4696C156.537 20.5065 157.439 20.7092 158.801 19.9353C159.629 19.4379 161.23 18.0008 161.23 15.6609C161.23 13.321 160.733 12.1971 159.997 11.4233C159.206 10.5573 158.23 9.89404 156.132 9.89404C154.274 9.89404 153.096 10.9258 153.096 12.4919V20.2854C153.924 20.2854 155.157 20.4144 155.856 20.4881L155.838 20.4696Z" fill="white"/>
<path d="M184.972 26.8627C184.18 26.3284 183.242 25.7941 181.714 25.2966C179.487 24.6333 177.058 24.5965 177.058 24.5965C176.69 25.4624 175.402 28.7604 175.255 29.2579C175.126 29.7553 174.758 30.8608 174.684 31.1924C174.482 32.3532 174.721 32.7585 175.015 33.0533C175.383 33.4218 176.451 33.5876 177.353 33.5876V34.214H169.531V33.5507C170.231 33.5507 170.47 33.477 170.801 33.3849C172.034 33.0901 172.697 32.2795 173.065 31.5793C173.23 31.2477 173.433 30.8055 173.598 30.3449L182.027 9.37793H182.818C182.818 9.37793 191.045 29.7185 191.376 30.4554C191.707 31.1556 192.075 31.9847 192.406 32.39C192.774 32.9243 193.106 33.2191 193.474 33.3849C193.879 33.5507 194.412 33.5876 195.001 33.5876V34.214H184.475V33.5507C185.634 33.5507 186.407 33.3849 186.812 33.0901C187.309 32.7585 187.474 32.0215 187.474 31.5241V30.9529L187.346 30.4186C187.309 30.2159 187.18 29.8474 187.051 29.5895C186.812 28.9815 186.26 27.8208 184.953 26.8811L184.972 26.8627ZM177.481 23.6016C180.941 23.7674 183.444 24.1727 185.505 24.965L181.272 14.0577C181.272 14.0577 177.849 22.5882 177.481 23.62V23.6016Z" fill="white"/>
<path d="M66.6556 49.2853C66.1955 48.9905 65.8643 48.5851 65.625 48.0877C65.3858 47.5718 65.2754 47.0191 65.2754 46.3742C65.2754 45.7294 65.4042 45.1766 65.6434 44.6608C65.8827 44.1449 66.2324 43.7395 66.6924 43.4447C67.1525 43.15 67.7046 42.9841 68.3487 42.9841H68.4775C68.956 42.9841 69.3977 43.0947 69.7842 43.3158C70.1706 43.5369 70.4835 43.8317 70.7043 44.2001C70.9252 44.5686 71.054 44.9924 71.054 45.4714H70.1338C70.1338 45.1582 70.0602 44.8818 69.9314 44.6423C69.8026 44.4028 69.6001 44.2186 69.3609 44.0712C69.1032 43.9422 68.8088 43.8685 68.4775 43.8685H68.3487C67.8702 43.8685 67.4654 43.979 67.1341 44.2001C66.8029 44.4212 66.5636 44.716 66.4164 45.0845C66.2508 45.4714 66.1771 45.8952 66.1771 46.3742C66.1771 46.8533 66.2508 47.3139 66.398 47.6824C66.5452 48.0508 66.7844 48.3456 67.0973 48.5483C67.4102 48.751 67.7966 48.8615 68.2751 48.8615C68.8272 48.8615 69.2689 48.6957 69.5817 48.3641C69.8946 48.0324 70.0786 47.5534 70.1338 46.9454H68.0911V46.061H71.054V49.6353H70.1522V48.9905C69.913 49.23 69.6369 49.3958 69.3057 49.5248C68.9744 49.6538 68.6248 49.709 68.2567 49.709C67.6126 49.709 67.0789 49.5616 66.6188 49.2668L66.6556 49.2853Z" fill="white"/>
<path d="M76.5007 49.2853C76.0406 48.9905 75.6726 48.5851 75.4333 48.0877C75.1941 47.5902 75.0469 47.0006 75.0469 46.3558C75.0469 45.7109 75.1757 45.1398 75.4333 44.6239C75.691 44.108 76.0406 43.7027 76.5007 43.4263C76.9608 43.1315 77.4945 42.9841 78.0834 42.9841C78.6723 42.9841 79.206 43.1315 79.6661 43.4263C80.1262 43.7211 80.4758 44.1264 80.7335 44.6239C80.9911 45.1398 81.1199 45.7109 81.1199 46.3558C81.1199 47.0006 80.9911 47.5718 80.7335 48.0877C80.4758 48.6036 80.1262 48.9905 79.6661 49.2853C79.206 49.5801 78.6723 49.7275 78.0834 49.7275C77.4945 49.7275 76.9608 49.5801 76.5007 49.2853ZM76.2247 47.7008C76.4087 48.0693 76.648 48.3641 76.9792 48.5667C77.3105 48.7694 77.6785 48.8615 78.0834 48.8615C78.4883 48.8615 78.8747 48.7694 79.1876 48.5667C79.5188 48.3641 79.7581 48.0693 79.9421 47.7008C80.1261 47.3323 80.2182 46.8901 80.2182 46.3742C80.2182 45.8583 80.1261 45.4162 79.9421 45.0477C79.7581 44.6792 79.5188 44.3844 79.1876 44.1817C78.8563 43.979 78.4883 43.8869 78.0834 43.8869C77.6785 43.8869 77.2921 43.979 76.9608 44.1817C76.6295 44.3844 76.3903 44.6608 76.2063 45.0477C76.0222 45.4162 75.9302 45.8583 75.9302 46.3742C75.9302 46.8901 76.0222 47.3323 76.2063 47.7008H76.2247Z" fill="white"/>
<path d="M85.2977 43.0762H86.1995V48.7693H90.0273V49.6537H85.2793V43.0946L85.2977 43.0762Z" fill="white"/>
<path d="M94.002 43.0762H96.3391C96.9649 43.0762 97.4801 43.2236 97.885 43.5184C98.3083 43.8132 98.6027 44.2185 98.8052 44.7159C99.0076 45.2134 99.0996 45.7661 99.0996 46.3926C99.0996 47.019 98.9892 47.5533 98.7868 48.0508C98.5843 48.5482 98.2715 48.9351 97.8482 49.2115C97.4249 49.5063 96.9097 49.6353 96.2839 49.6353H94.002V43.0762ZM96.2839 48.7693C96.9281 48.7693 97.4065 48.5666 97.7194 48.1613C98.0322 47.756 98.1979 47.1664 98.1979 46.3926C98.1979 45.6187 98.0506 44.9923 97.7378 44.587C97.4249 44.1632 96.9649 43.9605 96.3391 43.9605H94.8853V48.7693H96.2655H96.2839Z" fill="white"/>
<path d="M108.542 43.0947H111.413C111.836 43.0947 112.204 43.1684 112.517 43.2974C112.848 43.4448 113.106 43.6475 113.29 43.9423C113.474 44.237 113.584 44.6055 113.584 45.0477C113.584 45.582 113.455 46.0058 113.179 46.319C112.903 46.6322 112.554 46.8349 112.094 46.9454L113.768 49.6354H112.701L111.063 47.0191H109.425V49.617L108.523 49.6722V43.0947H108.542ZM111.394 46.1348C111.836 46.1348 112.149 46.0611 112.37 45.8952C112.572 45.7294 112.683 45.4531 112.683 45.0477C112.683 44.6424 112.572 44.366 112.37 44.2186C112.167 44.0712 111.836 43.9791 111.394 43.9791H109.444V46.1532H111.394V46.1348Z" fill="white"/>
<path d="M117.889 43.0762H122.545V43.9605H118.791V45.7477H122.251V46.6321H118.791V48.7877H122.619V49.6721H117.871V43.113L117.889 43.0762Z" fill="white"/>
<path d="M126.834 43.0762H131.49V43.9605H127.736V45.7477H131.196V46.6321H127.736V49.6537H126.834V43.0946V43.0762Z" fill="white"/>
<path d="M135.686 43.0762H136.587V49.6353H135.686V43.0762Z" fill="white"/>
<path d="M141.152 43.0762H141.962L145.256 47.9218V43.0762H146.158V49.6353H145.348L142.054 44.8265V49.6353H141.152V43.0762Z" fill="white"/>
<path d="M150.739 43.0762H155.395V43.9605H151.641V45.7477H155.101V46.6321H151.641V48.7877H155.469V49.6721H150.721V43.113L150.739 43.0762Z" fill="white"/>
<path d="M159.684 43.0947H162.555C162.979 43.0947 163.347 43.1684 163.66 43.2974C163.991 43.4448 164.248 43.6475 164.432 43.9423C164.616 44.237 164.727 44.6055 164.727 45.0477C164.727 45.582 164.598 46.0058 164.322 46.319C164.046 46.6322 163.696 46.8349 163.236 46.9454L164.911 49.6354H163.844L162.206 47.0191H160.568V49.617L159.666 49.6722V43.0947H159.684ZM162.537 46.1348C162.979 46.1348 163.291 46.0611 163.512 45.8952C163.715 45.7294 163.825 45.4531 163.825 45.0477C163.825 44.6424 163.715 44.366 163.512 44.2186C163.31 44.0712 162.979 43.9791 162.537 43.9791H160.586V46.1532H162.537V46.1348Z" fill="white"/>
<path d="M170.689 46.9821L168.26 43.0762H169.327L171.149 46.0057L172.989 43.0762H174.057L171.609 46.9821V49.6353H170.707V46.9821H170.689Z" fill="white"/>
<path fill-rule="evenodd" clip-rule="evenodd" d="M57.676 25.6835C57.2159 21.3538 55.9461 18.2032 54.1794 14.8131C53.3697 13.247 52.2287 11.6257 51.2165 10.4834C50.2043 9.34107 48.8241 7.66445 47.6279 6.78008C46.174 5.72989 45.125 4.75339 43.3399 3.7769C37.7638 0.663177 32.1508 -0.49756 25.4704 0.202567C10.6927 1.73179 -1.54541 15.4764 0.166087 32.2979C1.67515 47.2216 15.4223 59.6765 32.4452 57.8341C40.5426 56.9497 47.8855 52.4357 52.5783 45.7477C52.3207 45.9872 51.971 46.1346 51.5845 46.1346H51.2165C50.8484 46.632 50.4619 47.0742 50.1123 47.4427C49.781 47.7744 49.7258 47.7191 49.4682 48.0692C49.1737 47.5164 48.8425 46.8531 48.5296 46.1346H47.7015C48.0143 46.9084 48.272 47.6085 48.456 48.0692C48.9713 49.3773 47.5174 49.8932 46.7813 50.538C42.843 53.9834 35.8498 57.2814 30.1448 57.005C33.0894 53.965 38.8311 47.8296 41.7573 45.0844C42.9903 43.9237 43.4503 43.5736 44.3521 42.6708L43.8552 41.8233L41.4444 44.1263C39.2912 46.2267 31.5987 54.5914 30.3657 55.2178L34.0647 46.0977C33.7519 46.0977 33.4574 45.9872 33.1998 45.7845L28.967 56.1759C28.3965 55.3284 20.8328 36.038 19.6182 32.9796L19.2686 32.0952L17.8699 30.7134C17.8147 31.4688 18.2932 32.1689 18.6613 33.0901C19.9495 36.2775 27.2556 54.0387 27.5132 55.3468C26.9427 54.8125 26.4826 54.2966 25.9121 53.6886C25.3232 53.0622 24.7895 52.7121 24.1822 52.1041C22.5443 50.4643 18.7349 46.4847 14.6678 42.247V43.5552L20.1335 49.3036C20.796 50.0037 21.4954 50.5012 22.1763 51.2197L27.6604 56.9866C24.1454 57.2261 19.8943 55.66 17.0786 54.444C13.766 53.0069 11.3368 50.9986 9.16524 48.9351L10.4535 45.8951H9.49649L9.31246 46.3188C8.9628 47.1664 8.90759 47.627 8.3739 48.1244C6.58879 46.024 4.60125 43.4631 3.23942 40.2019C2.15363 37.6225 0.681376 32.8874 0.93902 29.6632C1.9696 30.4923 2.68732 31.5609 3.7179 32.4637C4.41722 33.0717 6.11031 34.7299 7.7666 36.4065V35.1352C4.50923 31.8004 1.87758 29.1841 1.10465 28.6314C1.52792 27.6733 3.129 26.4389 3.90193 25.7019C4.41722 25.2045 4.65646 24.7807 5.17175 24.2648L7.785 21.7407V20.4141C5.11654 23.1409 2.04321 26.531 0.99423 27.1206C1.15986 23.2515 2.33766 19.8614 3.7179 16.7661C4.71167 14.4999 7.7666 10.0596 9.27566 9.15682C9.5333 10.1149 9.97498 11.2756 10.4535 12.4916L12.0361 14.1683C11.2632 12.3995 10.2878 9.65428 9.84615 8.62252C10.7111 7.07487 15.2935 4.31121 17.5203 3.37156C20.6304 2.06343 23.9982 1.08694 27.734 0.994816L20.2992 8.4567C17.962 10.6676 15.2935 13.0259 13.1035 15.329L13.7476 15.9923L27.55 2.56089L19.379 21.9249L20.0783 22.6619C20.3728 21.9618 20.6672 21.2432 20.9617 20.5247C22.5443 16.7845 27.55 4.16381 28.875 1.75022L33.6046 12.9707H34.0463C34.2488 12.9707 34.4328 13.0259 34.6168 13.0996C32.4636 7.97766 30.4577 3.15047 30.3289 2.43192L36.9356 8.93573C38.3159 10.2807 39.6777 11.5888 41.0579 12.9154C41.5364 12.9707 41.9965 13.0444 42.4566 13.1549C42.0701 12.768 41.7204 12.4179 41.4444 12.1416L30.108 0.994816C33.4942 0.847421 37.8742 2.21083 40.5979 3.42684C42.8062 4.42175 46.9285 6.9459 48.2352 8.65936L45.898 14.7026C46.1188 14.85 46.358 15.0158 46.5605 15.1816L49.0265 9.32264C49.1737 9.52531 50.7932 11.2388 51.8606 12.7496C52.7255 13.984 53.5353 15.329 54.2346 16.8214C55.67 19.8982 56.7926 23.4173 56.9583 27.268C56.1669 26.789 51.0324 21.8512 48.0695 18.7744C48.0143 18.8112 47.9959 18.8665 47.9407 18.9218L47.3334 19.3824C49.8546 21.9618 55.6884 26.9548 56.719 28.5761L48.8057 36.775L49.2841 37.6225C51.1429 35.7432 53.4433 33.2375 54.345 32.3163L56.811 29.9395C57.4368 33.3481 55.3388 39.4281 52.7808 43.7763L52.8728 43.9237C53.112 44.3474 53.1304 44.8265 52.928 45.2502C56.5718 39.8334 58.4857 33.0533 57.6944 25.6651L57.676 25.6835Z" fill="white"/>
<path fill-rule="evenodd" clip-rule="evenodd" d="M35.5195 39.9993V42.4129L38.0776 36.0933C37.7647 36.0565 37.4519 36.0196 37.1574 35.9644C36.955 36.4802 36.7894 36.8856 36.6789 37.1435L35.5195 40.0177V39.9993Z" fill="white"/>
<path fill-rule="evenodd" clip-rule="evenodd" d="M14.6494 33.6246V36.1487C15.6064 33.8088 16.729 30.8978 17.0787 30.0134L16.4346 29.387C16.2505 29.9213 15.9561 30.603 15.5328 31.5795C15.3672 31.948 15.0359 32.7218 14.631 33.643L14.6494 33.6246Z" fill="white"/>
<path d="M30.1081 35.3748L26.0042 31.0819L9.22052 13.3577V44.458H13.1772V23.3437C13.5637 23.9333 13.9685 24.5044 14.3918 25.0572C14.8151 25.5915 15.2384 26.1442 15.7168 26.6048L34.0464 44.6791V14.4816H30.0897V35.3748H30.1081Z" fill="white"/>
<path d="M51.5662 44.6607L45.1619 33.3481C45.5852 33.0902 45.9717 32.777 46.3397 32.4453C47.904 30.9345 48.6769 28.8157 48.6769 26.0889C48.6769 25.8678 48.6769 25.4441 48.6401 24.8176C48.6401 24.5781 48.6401 24.3939 48.6401 24.2649H40.9844V26.918H45.6404V27.1944C45.6404 28.6499 45.1251 29.7922 44.0945 30.6213C43.064 31.4504 41.6469 31.8742 39.8434 31.8742C38.2791 31.8742 37.0093 31.5057 35.9235 30.7503V34.1404C37.0645 34.5089 38.3527 34.6931 39.7698 34.6931C40.3035 34.6931 40.8004 34.6563 41.2972 34.601L47.2231 44.6423H51.603L51.5662 44.6607Z" fill="white"/>
<path d="M42.5496 17.798C43.3778 18.1665 44.1139 18.7377 44.758 19.4931L47.0584 17.7612C46.1198 16.6189 45.034 15.7713 43.8378 15.2002C42.6416 14.6475 41.2614 14.3711 39.7523 14.3711C38.3905 14.3711 37.1207 14.5922 35.9061 15.0159V18.3508C36.9919 17.6138 38.2433 17.2453 39.8075 17.2453C40.8197 17.2453 41.7399 17.4295 42.5496 17.798Z" fill="white"/>
</g>
<defs>
<clipPath id="clip0_108_73">
<rect width="195" height="58" fill="white"/>
</clipPath>
</defs>
</svg>
