<svg width="26" height="26" viewBox="0 0 26 26" fill="none" xmlns="http://www.w3.org/2000/svg">
<path d="M23.7858 0.161377H2.0528C0.919069 0.161377 0 1.08045 0 2.21418V23.9472C0 25.0809 0.919069 26 2.0528 26H23.7858C24.9196 26 25.8386 25.0809 25.8386 23.9472V2.21418C25.8386 1.08045 24.9196 0.161377 23.7858 0.161377Z" fill="#E31E24"/>
<path fill-rule="evenodd" clip-rule="evenodd" d="M12.5681 6.24C12.5681 6.24 12.4894 6.66994 12.3259 7.3966C12.1624 8.12325 12.0292 8.41391 12.0292 8.41391C12.0292 8.41391 11.575 7.20888 11.4902 5.75557C11.4115 4.30831 11.4115 3.72093 11.7022 3.42422C11.9989 3.12144 12.4288 3.93288 12.5318 4.28409C12.6408 4.63531 12.774 5.41041 12.774 5.41041C12.774 5.41041 12.9556 4.58686 12.883 3.85415C12.8043 3.12144 11.7567 3.12144 11.7567 3.12144C11.7567 3.12144 10.4668 3.1275 10.4971 4.09637C10.5213 5.06525 10.4184 5.41041 10.7091 7.04538C10.915 8.19592 11.1511 9.24351 11.2722 9.76428C11.2722 9.77033 11.2783 9.80667 11.2964 9.87328C11.3328 10.0247 11.3509 10.1094 11.3509 10.1094C11.3509 10.1094 10.6001 11.9321 8.88032 15.3656C7.16057 18.799 5.6891 20.652 5.15016 21.2151C4.61122 21.7783 3.35169 22.5837 3.64841 21.8025C3.94512 21.0274 4.77472 19.8951 5.4711 19.3319C6.16748 18.7687 6.67613 18.363 6.67613 18.363C6.67613 18.363 6.88808 18.0421 6.32492 18.254C5.76176 18.466 4.50828 19.2713 3.66657 20.2947C2.83092 21.312 2.64926 21.6935 3.04892 22.1174C3.44858 22.5413 4.15101 22.7048 4.87161 22.3293C5.59826 21.9539 6.88202 20.6399 7.42096 19.7013C7.95989 18.7627 8.68049 17.5576 8.68049 17.5576C8.68049 17.5576 9.94002 17.0187 12.1442 16.5646C14.1243 16.1528 15.8623 15.85 16.1953 15.7955C16.8856 16.177 17.6183 16.4798 18.4237 16.7523C20.5431 17.4789 20.8096 17.4487 21.5907 17.4789C22.3658 17.5031 22.7594 17.0248 22.7594 16.8371C22.7594 16.6493 22.608 16.4616 22.608 16.4616C22.608 16.4616 22.4445 17.3215 19.55 16.2739C18.8415 16.0196 18.2542 15.8016 17.7516 15.5836C18.3934 15.523 19.1988 15.4685 20.1132 15.4685C22.4143 15.4685 22.7594 16.1104 22.608 16.1104C23.038 15.0386 21.185 14.6874 19.6833 14.6874C18.672 14.6874 17.3216 14.869 16.5405 14.9901C15.6564 14.4694 14.96 13.8275 13.9911 12.7012C13.1857 11.7626 12.6347 10.5636 12.2714 9.52812C12.5196 8.41997 12.7437 7.02721 12.5378 6.24H12.5681ZM15.3233 15.2445C14.6269 15.3474 13.5491 15.5533 12.2714 15.9469C10.0187 16.6433 8.99537 17.049 8.99537 17.049C8.99537 17.049 10.1217 15.0386 10.6061 14.0455C11.0482 13.1311 11.7445 11.4719 11.8535 11.2115C12.126 11.7323 12.5257 12.3742 13.101 13.1069C13.8155 14.0152 14.5422 14.6995 15.3233 15.2445Z" fill="#FEFEFE"/>
</svg>
